<svg xmlns="http://www.w3.org/2000/svg" xmlns:xlink="http://www.w3.org/1999/xlink" width="1000" zoomAndPan="magnify" viewBox="0 0 750 749.999995" height="1000" preserveAspectRatio="xMidYMid meet" version="1.0"><defs><clipPath id="430a7b9d94"><path d="M 67 283.925781 L 560 283.925781 L 560 466.175781 L 67 466.175781 Z M 67 283.925781 " clip-rule="nonzero"/></clipPath><clipPath id="71dca1b681"><path d="M 66.273438 375 C 66.273438 425.296875 107.050781 466.074219 157.347656 466.074219 L 592.652344 466.074219 C 642.949219 466.074219 683.726562 425.296875 683.726562 375 C 683.726562 324.703125 642.949219 283.925781 592.652344 283.925781 L 157.347656 283.925781 C 107.050781 283.925781 66.273438 324.703125 66.273438 375 Z M 66.273438 375 " clip-rule="nonzero"/></clipPath><clipPath id="c377910ed9"><path d="M 445 284 L 683 284 L 683 466.175781 L 445 466.175781 Z M 445 284 " clip-rule="nonzero"/></clipPath><clipPath id="ca3faa2e9f"><path d="M 66.273438 375 C 66.273438 425.296875 107.050781 466.074219 157.347656 466.074219 L 592.652344 466.074219 C 642.949219 466.074219 683.726562 425.296875 683.726562 375 C 683.726562 324.703125 642.949219 283.925781 592.652344 283.925781 L 157.347656 283.925781 C 107.050781 283.925781 66.273438 324.703125 66.273438 375 Z M 66.273438 375 " clip-rule="nonzero"/></clipPath><clipPath id="f23bb7fb4b"><path d="M 71 284 L 183 284 L 183 369 L 71 369 Z M 71 284 " clip-rule="nonzero"/></clipPath><clipPath id="a5937c9501"><path d="M 66.273438 375 C 66.273438 425.296875 107.050781 466.074219 157.347656 466.074219 L 592.652344 466.074219 C 642.949219 466.074219 683.726562 425.296875 683.726562 375 C 683.726562 324.703125 642.949219 283.925781 592.652344 283.925781 L 157.347656 283.925781 C 107.050781 283.925781 66.273438 324.703125 66.273438 375 Z M 66.273438 375 " clip-rule="nonzero"/></clipPath><clipPath id="7c6161e934"><path d="M 320 284 L 435 284 L 435 371 L 320 371 Z M 320 284 " clip-rule="nonzero"/></clipPath><clipPath id="24498f61cc"><path d="M 66.273438 375 C 66.273438 425.296875 107.050781 466.074219 157.347656 466.074219 L 592.652344 466.074219 C 642.949219 466.074219 683.726562 425.296875 683.726562 375 C 683.726562 324.703125 642.949219 283.925781 592.652344 283.925781 L 157.347656 283.925781 C 107.050781 283.925781 66.273438 324.703125 66.273438 375 Z M 66.273438 375 " clip-rule="nonzero"/></clipPath><clipPath id="80a32256e2"><path d="M 193 379 L 310 379 L 310 466.175781 L 193 466.175781 Z M 193 379 " clip-rule="nonzero"/></clipPath><clipPath id="36eafcdd35"><path d="M 66.273438 375 C 66.273438 425.296875 107.050781 466.074219 157.347656 466.074219 L 592.652344 466.074219 C 642.949219 466.074219 683.726562 425.296875 683.726562 375 C 683.726562 324.703125 642.949219 283.925781 592.652344 283.925781 L 157.347656 283.925781 C 107.050781 283.925781 66.273438 324.703125 66.273438 375 Z M 66.273438 375 " clip-rule="nonzero"/></clipPath><clipPath id="273122d525"><path d="M 190 283.820312 L 683 283.820312 L 683 466.070312 L 190 466.070312 Z M 190 283.820312 " clip-rule="nonzero"/></clipPath><clipPath id="6a9957c68e"><path d="M 683.722656 374.996094 C 683.722656 324.699219 642.949219 283.921875 592.648438 283.921875 L 157.347656 283.921875 C 107.046875 283.921875 66.273438 324.699219 66.273438 374.996094 C 66.273438 425.296875 107.046875 466.070312 157.347656 466.070312 L 592.648438 466.070312 C 642.949219 466.070312 683.722656 425.296875 683.722656 374.996094 Z M 683.722656 374.996094 " clip-rule="nonzero"/></clipPath><clipPath id="3ae2c269d0"><path d="M 67 283.820312 L 305 283.820312 L 305 466 L 67 466 Z M 67 283.820312 " clip-rule="nonzero"/></clipPath><clipPath id="44e80e0119"><path d="M 683.722656 374.996094 C 683.722656 324.699219 642.949219 283.921875 592.648438 283.921875 L 157.347656 283.921875 C 107.046875 283.921875 66.273438 324.699219 66.273438 374.996094 C 66.273438 425.296875 107.046875 466.070312 157.347656 466.070312 L 592.648438 466.070312 C 642.949219 466.070312 683.722656 425.296875 683.722656 374.996094 Z M 683.722656 374.996094 " clip-rule="nonzero"/></clipPath><clipPath id="346e5f9474"><path d="M 567 381 L 679 381 L 679 466 L 567 466 Z M 567 381 " clip-rule="nonzero"/></clipPath><clipPath id="4bc9d6322e"><path d="M 683.722656 374.996094 C 683.722656 324.699219 642.949219 283.921875 592.648438 283.921875 L 157.347656 283.921875 C 107.046875 283.921875 66.273438 324.699219 66.273438 374.996094 C 66.273438 425.296875 107.046875 466.070312 157.347656 466.070312 L 592.648438 466.070312 C 642.949219 466.070312 683.722656 425.296875 683.722656 374.996094 Z M 683.722656 374.996094 " clip-rule="nonzero"/></clipPath><clipPath id="c1c85fafa2"><path d="M 315 379 L 430 379 L 430 466 L 315 466 Z M 315 379 " clip-rule="nonzero"/></clipPath><clipPath id="2477c11cc8"><path d="M 683.722656 374.996094 C 683.722656 324.699219 642.949219 283.921875 592.648438 283.921875 L 157.347656 283.921875 C 107.046875 283.921875 66.273438 324.699219 66.273438 374.996094 C 66.273438 425.296875 107.046875 466.070312 157.347656 466.070312 L 592.648438 466.070312 C 642.949219 466.070312 683.722656 425.296875 683.722656 374.996094 Z M 683.722656 374.996094 " clip-rule="nonzero"/></clipPath><clipPath id="00d8b811b8"><path d="M 440 283.820312 L 557 283.820312 L 557 371 L 440 371 Z M 440 283.820312 " clip-rule="nonzero"/></clipPath><clipPath id="a2fc349675"><path d="M 683.722656 374.996094 C 683.722656 324.699219 642.949219 283.921875 592.648438 283.921875 L 157.347656 283.921875 C 107.046875 283.921875 66.273438 324.699219 66.273438 374.996094 C 66.273438 425.296875 107.046875 466.070312 157.347656 466.070312 L 592.648438 466.070312 C 642.949219 466.070312 683.722656 425.296875 683.722656 374.996094 Z M 683.722656 374.996094 " clip-rule="nonzero"/></clipPath></defs><g clip-path="url(#430a7b9d94)"><g clip-path="url(#71dca1b681)"><path fill="#ffffff" d="M 378.230469 465.15625 L 559.082031 284.382812 L 502.121094 284.457031 L 377.472656 409.109375 L 279.210938 310.925781 L 252.214844 283.925781 L 67.027344 466.070312 L 123.761719 466.070312 L 250.84375 339.292969 L 349.105469 437.550781 L 377.472656 465.917969 Z M 378.230469 465.15625 " fill-opacity="1" fill-rule="nonzero"/></g></g><g clip-path="url(#c377910ed9)"><g clip-path="url(#ca3faa2e9f)"><path fill="#ffffff" d="M 626.007812 284.457031 L 501.132812 409.335938 L 473.523438 381.730469 L 445.082031 410.097656 L 501.132812 466.070312 L 529.574219 437.703125 L 682.972656 284.382812 Z M 626.007812 284.457031 " fill-opacity="1" fill-rule="nonzero"/></g></g><g clip-path="url(#f23bb7fb4b)"><g clip-path="url(#a5937c9501)"><path fill="#ffffff" d="M 153.878906 368.496094 L 182.472656 340.355469 L 126.574219 284.457031 L 71.363281 284.382812 L 99.882812 314.574219 Z M 153.878906 368.496094 " fill-opacity="1" fill-rule="nonzero"/></g></g><g clip-path="url(#7c6161e934)"><g clip-path="url(#24498f61cc)"><path fill="#ffffff" d="M 404.699219 312.824219 L 376.332031 284.457031 L 347.886719 312.824219 L 320.734375 340.050781 L 349.105469 368.417969 L 376.332031 341.191406 L 405.839844 370.851562 L 434.207031 342.410156 Z M 404.699219 312.824219 " fill-opacity="1" fill-rule="nonzero"/></g></g><g clip-path="url(#80a32256e2)"><g clip-path="url(#36eafcdd35)"><path fill="#ffffff" d="M 281.035156 379.75 L 251.453125 409.335938 L 222.019531 379.75 L 193.652344 408.117188 L 223.085938 437.703125 L 251.453125 466.070312 L 309.40625 408.117188 Z M 281.035156 379.75 " fill-opacity="1" fill-rule="nonzero"/></g></g><g clip-path="url(#273122d525)"><g clip-path="url(#6a9957c68e)"><path fill="#ffffff" d="M 371.765625 284.839844 L 190.914062 465.613281 L 247.878906 465.539062 L 372.527344 340.890625 L 470.785156 439.070312 L 497.785156 466.070312 L 682.972656 283.925781 L 626.238281 283.925781 L 499.152344 410.703125 L 372.527344 284.078125 Z M 371.765625 284.839844 " fill-opacity="1" fill-rule="nonzero"/></g></g><g clip-path="url(#3ae2c269d0)"><g clip-path="url(#44e80e0119)"><path fill="#ffffff" d="M 123.988281 465.539062 L 248.867188 340.660156 L 276.472656 368.269531 L 304.917969 339.898438 L 248.867188 283.925781 L 220.421875 312.292969 L 67.027344 465.613281 Z M 123.988281 465.539062 " fill-opacity="1" fill-rule="nonzero"/></g></g><g clip-path="url(#346e5f9474)"><g clip-path="url(#4bc9d6322e)"><path fill="#ffffff" d="M 596.121094 381.5 L 567.523438 409.640625 L 623.421875 465.539062 L 678.636719 465.613281 L 650.117188 435.421875 Z M 596.121094 381.5 " fill-opacity="1" fill-rule="nonzero"/></g></g><g clip-path="url(#c1c85fafa2)"><g clip-path="url(#2477c11cc8)"><path fill="#ffffff" d="M 345.300781 437.171875 L 373.667969 465.539062 L 402.113281 437.171875 L 429.261719 409.945312 L 400.894531 381.578125 L 373.667969 408.804688 L 344.160156 379.144531 L 315.792969 407.585938 Z M 345.300781 437.171875 " fill-opacity="1" fill-rule="nonzero"/></g></g><g clip-path="url(#00d8b811b8)"><g clip-path="url(#a2fc349675)"><path fill="#ffffff" d="M 468.960938 370.246094 L 498.546875 340.660156 L 527.976562 370.246094 L 556.34375 341.878906 L 526.914062 312.292969 L 498.546875 283.925781 L 440.59375 341.878906 Z M 468.960938 370.246094 " fill-opacity="1" fill-rule="nonzero"/></g></g></svg>